<svg width="210" height="72" viewBox="0 0 210 72" fill="none" xmlns="http://www.w3.org/2000/svg">
<path d="M84.7747 24.4088V32.0792H64.1284V24.4088H84.7747ZM68.4536 16.5679H78.8727V46.8449C78.8727 47.4841 78.9721 48.0025 79.171 48.4003C79.384 48.7838 79.6894 49.0608 80.0872 49.2312C80.4849 49.3875 80.9607 49.4656 81.5147 49.4656C81.9124 49.4656 82.3315 49.4301 82.7718 49.3591C83.2264 49.2738 83.5673 49.2028 83.7945 49.146L85.3713 56.6673C84.8741 56.8093 84.171 56.9869 83.2619 57.2C82.367 57.413 81.2945 57.548 80.0445 57.6048C77.6014 57.7184 75.5062 57.4343 73.759 56.7525C72.0261 56.0565 70.698 54.977 69.7747 53.5139C68.8656 52.0508 68.4252 50.2113 68.4536 47.9954V16.5679Z" fill="#479C6E"/>
<path d="M105.016 57.7539C101.579 57.7539 98.6241 57.0508 96.1525 55.6446C93.6951 54.2241 91.7988 52.2497 90.4636 49.7213C89.1426 47.1787 88.4821 44.2312 88.4821 40.8789C88.4821 37.5125 89.1426 34.565 90.4636 32.0366C91.7988 29.494 93.6951 27.5196 96.1525 26.1133C98.6241 24.6929 101.579 23.9826 105.016 23.9826C108.454 23.9826 111.401 24.6929 113.858 26.1133C116.33 27.5196 118.226 29.494 119.547 32.0366C120.883 34.565 121.55 37.5125 121.55 40.8789C121.55 44.2312 120.883 47.1787 119.547 49.7213C118.226 52.2497 116.33 54.2241 113.858 55.6446C111.401 57.0508 108.454 57.7539 105.016 57.7539ZM105.08 49.8917C106.33 49.8917 107.388 49.5082 108.255 48.7412C109.121 47.9741 109.782 46.9088 110.236 45.5451C110.705 44.1815 110.939 42.6048 110.939 40.815C110.939 38.9968 110.705 37.4059 110.236 36.0423C109.782 34.6787 109.121 33.6133 108.255 32.8463C107.388 32.0792 106.33 31.6957 105.08 31.6957C103.787 31.6957 102.694 32.0792 101.799 32.8463C100.918 33.6133 100.243 34.6787 99.7747 36.0423C99.3201 37.4059 99.0928 38.9968 99.0928 40.815C99.0928 42.6048 99.3201 44.1815 99.7747 45.5451C100.243 46.9088 100.918 47.9741 101.799 48.7412C102.694 49.5082 103.787 49.8917 105.08 49.8917Z" fill="#479C6E"/>
<path d="M138.841 57.6051C136.426 57.6051 134.231 56.9801 132.257 55.7301C130.282 54.4801 128.706 52.6051 127.527 50.1051C126.348 47.6051 125.758 44.5014 125.758 40.794C125.758 36.9446 126.369 33.777 127.591 31.2912C128.812 28.8054 130.41 26.9659 132.385 25.7727C134.373 24.5795 136.511 23.983 138.798 23.983C140.517 23.983 141.987 24.2813 143.209 24.8778C144.43 25.4602 145.439 26.2131 146.234 27.1364C147.03 28.0597 147.633 29.0185 148.045 30.0128H148.258V13.5H158.677V57.1364H148.365V51.831H148.045C147.605 52.8395 146.98 53.7841 146.17 54.6648C145.361 55.5455 144.345 56.2557 143.123 56.7955C141.916 57.3352 140.488 57.6051 138.841 57.6051ZM142.463 49.4872C143.727 49.4872 144.807 49.1321 145.701 48.4219C146.596 47.6974 147.285 46.6818 147.768 45.375C148.251 44.0682 148.493 42.5341 148.493 40.7727C148.493 38.983 148.251 37.4418 147.768 36.1491C147.299 34.8565 146.611 33.8622 145.701 33.1662C144.807 32.4702 143.727 32.1222 142.463 32.1222C141.17 32.1222 140.076 32.4773 139.182 33.1875C138.287 33.8977 137.605 34.8991 137.136 36.1918C136.682 37.4844 136.454 39.0114 136.454 40.7727C136.454 42.5341 136.689 44.0682 137.157 45.375C137.626 46.6818 138.301 47.6974 139.182 48.4219C140.076 49.1321 141.17 49.4872 142.463 49.4872Z" fill="#9359F3"/>
<path d="M180.543 57.7543C177.106 57.7543 174.151 57.0511 171.68 55.6449C169.222 54.2244 167.326 52.25 165.991 49.7216C164.67 47.179 164.009 44.2315 164.009 40.8793C164.009 37.5128 164.67 34.5653 165.991 32.0369C167.326 29.4943 169.222 27.5199 171.68 26.1136C174.151 24.6932 177.106 23.983 180.543 23.983C183.981 23.983 186.928 24.6932 189.386 26.1136C191.857 27.5199 193.754 29.4943 195.075 32.0369C196.41 34.5653 197.078 37.5128 197.078 40.8793C197.078 44.2315 196.41 47.179 195.075 49.7216C193.754 52.25 191.857 54.2244 189.386 55.6449C186.928 57.0511 183.981 57.7543 180.543 57.7543ZM180.607 49.892C181.857 49.892 182.916 49.5085 183.782 48.7415C184.649 47.9744 185.309 46.9091 185.764 45.5455C186.232 44.1818 186.467 42.6051 186.467 40.8153C186.467 38.9972 186.232 37.4063 185.764 36.0426C185.309 34.679 184.649 33.6136 183.782 32.8466C182.916 32.0795 181.857 31.696 180.607 31.696C179.315 31.696 178.221 32.0795 177.326 32.8466C176.445 33.6136 175.771 34.679 175.302 36.0426C174.847 37.4063 174.62 38.9972 174.62 40.8153C174.62 42.6051 174.847 44.1818 175.302 45.5455C175.771 46.9091 176.445 47.9744 177.326 48.7415C178.221 49.5085 179.315 49.892 180.607 49.892Z" fill="#9359F3"/>
<path d="M37.4995 56.3862C37.4995 56.983 37.2625 57.5553 36.8405 57.9772C36.4185 58.3992 35.8463 58.6362 35.2495 58.6362H29.2495C28.6528 58.6362 28.0805 58.3992 27.6585 57.9772C27.2366 57.5553 26.9995 56.983 26.9995 56.3862C26.9995 55.7895 27.2366 55.2172 27.6585 54.7952C28.0805 54.3733 28.6528 54.1362 29.2495 54.1362H35.2495C35.8463 54.1362 36.4185 54.3733 36.8405 54.7952C37.2625 55.2172 37.4995 55.7895 37.4995 56.3862ZM32.2495 35.3862C32.8429 35.3862 33.4229 35.2103 33.9162 34.8806C34.4096 34.551 34.7941 34.0825 35.0212 33.5343C35.2482 32.9861 35.3076 32.3829 35.1919 31.801C35.0761 31.219 34.7904 30.6845 34.3708 30.2649C33.9513 29.8454 33.4167 29.5596 32.8348 29.4439C32.2528 29.3281 31.6496 29.3875 31.1015 29.6146C30.5533 29.8417 30.0847 30.2262 29.7551 30.7195C29.4255 31.2129 29.2495 31.7929 29.2495 32.3862C29.2495 33.1819 29.5656 33.9449 30.1282 34.5076C30.6908 35.0702 31.4539 35.3862 32.2495 35.3862Z" fill="#479C6E"/>
<path d="M50.9114 43.0175L48.5939 53.4481C48.4575 54.0707 48.164 54.6479 47.7412 55.1249C47.3185 55.6018 46.7806 55.9625 46.1789 56.1725C45.7759 56.3141 45.3517 56.3864 44.9245 56.3863C44.0883 56.3856 43.2767 56.1036 42.6202 55.5856L37.7189 51.8863H26.7802L21.8789 55.5875C21.2222 56.1048 20.4105 56.3861 19.5745 56.3863C19.1472 56.3858 18.7231 56.3129 18.3202 56.1706C17.7185 55.9606 17.1806 55.5999 16.7578 55.123C16.3351 54.6461 16.0415 54.0688 15.9052 53.4463L13.5877 43.0175C13.4648 42.4578 13.4712 41.8774 13.6063 41.3205C13.7415 40.7636 14.0019 40.2449 14.3677 39.8038L19.5858 33.5413C19.7854 31.1949 20.332 28.891 21.2077 26.705C23.6958 20.4706 28.1452 16.5613 29.9527 15.17C30.61 14.6607 31.418 14.3843 32.2495 14.3843C33.0811 14.3843 33.8891 14.6607 34.5464 15.17C36.3464 16.5613 40.8033 20.4706 43.2914 26.705C44.1671 28.891 44.7137 31.1949 44.9133 33.5413L50.1314 39.8038C50.4972 40.2449 50.7576 40.7636 50.8927 41.3205C51.0279 41.8774 51.0343 42.4578 50.9114 43.0175ZM27.3352 47.3863H37.1639C40.822 40.6925 41.4764 34.3025 39.112 28.3738C37.1995 23.5738 33.787 20.3675 32.2495 19.0963C30.712 20.3675 27.2995 23.5738 25.387 28.3738C23.0208 34.3025 23.677 40.6925 27.3352 47.3863ZM23.107 49.0213C21.611 46.2407 20.5416 43.2511 19.9345 40.1525L18.0595 42.4025L20.0433 51.335L23.107 49.0213ZM46.4377 42.4006L44.5627 40.1506C43.9556 43.2492 42.8862 46.2389 41.3902 49.0194L44.452 51.3313L46.4377 42.4006Z" fill="#9359F3"/>
</svg>
